# Blender 3.5.1
# www.blender.org
mtllib Player.mtl
o Player
v -0.500000 0.506953 0.500000
v -0.666667 2.393076 0.666667
v -0.500000 0.506953 -0.500000
v -0.666667 2.393076 -0.666667
v 0.500000 0.506953 0.500000
v 0.666667 2.393076 0.666667
v 0.500000 0.506953 -0.500000
v 0.666667 2.393076 -0.666667
v -0.500000 4.059290 0.500000
v -0.500000 4.059290 -0.500000
v 0.500000 4.059289 0.500000
v 0.500000 4.059289 -0.500000
v -0.609568 0.362756 -0.000000
v -0.638117 1.237256 0.638117
v -0.916667 2.393076 0.000000
v -0.638117 1.237256 -0.638117
v 0.000000 0.362756 -0.609568
v 0.000000 2.393076 -0.916667
v 0.638117 1.237256 -0.638117
v 0.609568 0.362756 0.000000
v 0.916667 2.393076 0.000000
v 0.638117 1.237256 0.638117
v -0.000000 0.362756 0.609568
v 0.000000 2.393076 0.916667
v -0.609568 4.174573 0.000000
v 0.000000 4.174573 -0.609568
v 0.609568 4.174573 0.000000
v 0.000000 4.174573 0.609568
v 0.638117 3.455638 -0.638117
v 0.638117 3.455638 0.638117
v -0.638117 3.455638 0.638117
v -0.638117 3.455638 -0.638117
v -0.878087 1.223039 0.000000
v 0.000000 1.223039 -0.878087
v 0.878086 1.223039 0.000000
v 0.000000 1.223039 0.878087
v 0.000000 0.060144 0.000000
v 0.878086 3.467004 -0.000000
v 0.000000 4.416507 0.000000
v -0.878086 3.467004 0.000000
v 0.000000 3.467004 0.878086
v 0.000000 3.467004 -0.878086
v 0.661581 2.669707 0.330348
v 0.661581 3.330403 0.330348
v 0.661581 2.669707 -0.330348
v 0.661581 3.330403 -0.330348
v 1.322277 2.669707 0.330348
v 1.322277 3.330403 0.330348
v 1.322277 2.669707 -0.330348
v 1.322277 3.330403 -0.330348
vn -0.9121 -0.2607 0.3164
vn -0.9356 -0.0313 0.3517
vn -0.9356 -0.0313 -0.3517
vn -0.9121 -0.2607 -0.3164
vn -0.3164 -0.2607 -0.9121
vn -0.3517 -0.0313 -0.9356
vn 0.3517 -0.0313 -0.9356
vn 0.3164 -0.2607 -0.9121
vn 0.9121 -0.2607 -0.3164
vn 0.9356 -0.0313 -0.3517
vn 0.9356 -0.0313 0.3517
vn 0.9121 -0.2607 0.3164
vn 0.3164 -0.2607 0.9121
vn 0.3517 -0.0313 0.9356
vn -0.3517 -0.0313 0.9356
vn -0.3164 -0.2607 0.9121
vn -0.3777 -0.8454 -0.3777
vn 0.3777 -0.8454 -0.3777
vn 0.3777 -0.8454 0.3777
vn -0.3777 -0.8454 0.3777
vn 0.9355 0.0341 0.3516
vn 0.9355 0.0341 -0.3516
vn 0.8982 0.3112 -0.3105
vn 0.8982 0.3112 0.3105
vn 0.3188 0.8926 -0.3188
vn -0.3188 0.8926 -0.3188
vn -0.3188 0.8926 0.3188
vn 0.3188 0.8926 0.3188
vn -0.9355 0.0341 -0.3516
vn -0.9355 0.0341 0.3516
vn -0.8982 0.3112 0.3105
vn -0.8982 0.3112 -0.3105
vn -0.3516 0.0341 0.9355
vn 0.3516 0.0341 0.9355
vn 0.3105 0.3112 0.8982
vn -0.3105 0.3112 0.8982
vn 0.3516 0.0341 -0.9355
vn -0.3516 0.0341 -0.9355
vn -0.3105 0.3112 -0.8982
vn 0.3105 0.3112 -0.8982
vn -1.0000 -0.0000 -0.0000
vn -0.0000 -0.0000 -1.0000
vn 1.0000 -0.0000 -0.0000
vn -0.0000 -0.0000 1.0000
vn -0.0000 -1.0000 -0.0000
vn -0.0000 1.0000 -0.0000
vt 0.375000 0.000000
vt 0.375000 1.000000
vt 0.125000 0.750000
vt 0.625000 0.000000
vt 0.625000 1.000000
vt 0.375000 0.250000
vt 0.125000 0.500000
vt 0.583333 0.250000
vt 0.375000 0.750000
vt 0.583333 0.750000
vt 0.375000 0.500000
vt 0.583333 0.500000
vt 0.875000 0.750000
vt 0.625000 0.000000
vt 0.625000 1.000000
vt 0.875000 0.500000
vt 0.625000 0.250000
vt 0.625000 0.750000
vt 0.625000 0.500000
vt 0.375000 0.125000
vt 0.125000 0.625000
vt 0.500000 0.000000
vt 0.500000 1.000000
vt 0.586806 0.125000
vt 0.494792 0.250000
vt 0.375000 0.375000
vt 0.250000 0.500000
vt 0.583333 0.375000
vt 0.494792 0.500000
vt 0.375000 0.625000
vt 0.583333 0.625000
vt 0.494792 0.750000
vt 0.375000 0.875000
vt 0.250000 0.750000
vt 0.586806 0.875000
vt 0.875000 0.625000
vt 0.625000 0.125000
vt 0.750000 0.500000
vt 0.625000 0.375000
vt 0.659722 0.625000
vt 0.750000 0.750000
vt 0.625000 0.875000
vt 0.620660 0.500000
vt 0.620660 0.750000
vt 0.625000 0.000000
vt 0.625000 1.000000
vt 0.619792 0.250000
vt 0.495660 0.125000
vt 0.494792 0.375000
vt 0.494792 0.625000
vt 0.495660 0.875000
vt 0.250000 0.625000
vt 0.623264 0.625000
vt 0.753472 0.625000
vt 0.620660 0.125000
vt 0.620660 0.875000
vt 0.619792 0.375000
vt 0.375000 0.000000
vt 0.375000 1.000000
vt 0.125000 0.750000
vt 0.625000 0.000000
vt 0.625000 1.000000
vt 0.875000 0.750000
vt 0.375000 0.250000
vt 0.125000 0.500000
vt 0.625000 0.250000
vt 0.875000 0.500000
vt 0.375000 0.750000
vt 0.625000 0.750000
vt 0.375000 0.500000
vt 0.625000 0.500000
s 0
f 1/1/1 14/22/1 33/48/1 13/20/1
f 14/22/2 2/4/2 15/24/2 33/48/2
f 33/48/3 15/24/3 4/8/3 16/25/3
f 13/20/4 33/48/4 16/25/4 3/6/4
f 3/6/5 16/25/5 34/49/5 17/26/5
f 16/25/6 4/8/6 18/28/6 34/49/6
f 34/49/7 18/28/7 8/12/7 19/29/7
f 17/26/8 34/49/8 19/29/8 7/11/8
f 7/11/9 19/29/9 35/50/9 20/30/9
f 19/29/10 8/12/10 21/31/10 35/50/10
f 35/50/11 21/31/11 6/10/11 22/32/11
f 20/30/12 35/50/12 22/32/12 5/9/12
f 5/9/13 22/32/13 36/51/13 23/33/13
f 22/32/14 6/10/14 24/35/14 36/51/14
f 36/51/15 24/35/15 2/5/15 14/23/15
f 23/33/16 36/51/16 14/23/16 1/2/16
f 3/7/17 17/27/17 37/52/17 13/21/17
f 17/27/18 7/11/18 20/30/18 37/52/18
f 37/52/19 20/30/19 5/9/19 23/34/19
f 13/21/20 37/52/20 23/34/20 1/3/20
f 6/10/21 21/31/21 38/53/21 30/44/21
f 21/31/22 8/12/22 29/43/22 38/53/22
f 38/53/23 29/43/23 12/19/23 27/40/23
f 30/44/24 38/53/24 27/40/24 11/18/24
f 12/19/25 26/38/25 39/54/25 27/40/25
f 26/38/26 10/16/26 25/36/26 39/54/26
f 39/54/27 25/36/27 9/13/27 28/41/27
f 27/40/28 39/54/28 28/41/28 11/18/28
f 4/8/29 15/24/29 40/55/29 32/47/29
f 15/24/30 2/4/30 31/45/30 40/55/30
f 40/55/31 31/45/31 9/14/31 25/37/31
f 32/47/32 40/55/32 25/37/32 10/17/32
f 2/5/33 24/35/33 41/56/33 31/46/33
f 24/35/34 6/10/34 30/44/34 41/56/34
f 41/56/35 30/44/35 11/18/35 28/42/35
f 31/46/36 41/56/36 28/42/36 9/15/36
f 8/12/37 18/28/37 42/57/37 29/43/37
f 18/28/38 4/8/38 32/47/38 42/57/38
f 42/57/39 32/47/39 10/17/39 26/39/39
f 29/43/40 42/57/40 26/39/40 12/19/40
f 43/58/41 44/61/41 46/66/41 45/64/41
f 45/64/42 46/66/42 50/71/42 49/70/42
f 49/70/43 50/71/43 48/69/43 47/68/43
f 47/68/44 48/69/44 44/62/44 43/59/44
f 45/65/45 49/70/45 47/68/45 43/60/45
f 50/71/46 46/67/46 44/63/46 48/69/46
